G04*
G04 #@! TF.GenerationSoftware,Altium Limited,Altium Designer,19.0.4 (130)*
G04*
G04 Layer_Color=128*
%FSLAX25Y25*%
%MOIN*%
G70*
G01*
G75*
%ADD11C,0.01000*%
%ADD54C,0.00200*%
D11*
X-131500Y-500D02*
X346000D01*
X-137500D02*
X-131500D01*
X-137500D02*
X-137500Y-393500D01*
X346000D01*
Y-500D01*
X393701Y-295276D02*
X393701Y-295276D01*
D54*
X-55272Y-246000D02*
X-51728D01*
X-53500Y-247772D02*
Y-244228D01*
X-75272Y-246000D02*
X-71728D01*
X-73500Y-247772D02*
Y-244228D01*
X-50035Y-60961D02*
X-46492D01*
X-48264Y-62732D02*
Y-59189D01*
X-80035Y-60961D02*
X-76492D01*
X-78264Y-62732D02*
Y-59189D01*
X-37862Y-288500D02*
X-33138D01*
X-35500Y-290862D02*
Y-286138D01*
X-37862Y-308480D02*
X-33138D01*
X-35500Y-310842D02*
Y-306118D01*
X143996Y-359803D02*
X147343D01*
X145669Y-361476D02*
Y-358130D01*
X143996Y-389803D02*
X147343D01*
X145669Y-391476D02*
Y-388130D01*
X152618Y-389764D02*
X155965D01*
X154291Y-391437D02*
Y-388090D01*
X182618Y-389764D02*
X185965D01*
X184291Y-391437D02*
Y-388090D01*
X96752Y-359803D02*
X100098D01*
X98425Y-361476D02*
Y-358130D01*
X96752Y-389803D02*
X100098D01*
X98425Y-391476D02*
Y-388130D01*
X106437Y-389764D02*
X109783D01*
X108110Y-391437D02*
Y-388090D01*
X136437Y-389764D02*
X139784D01*
X138110Y-391437D02*
Y-388090D01*
X46693Y-334646D02*
X51417D01*
X49055Y-337008D02*
Y-332283D01*
X5512Y-334646D02*
X10236D01*
X7874Y-337008D02*
Y-332283D01*
X5512Y-318898D02*
X10236D01*
X7874Y-321260D02*
Y-316535D01*
X46693Y-318898D02*
X51417D01*
X49055Y-321260D02*
Y-316535D01*
X46693Y-303150D02*
X51417D01*
X49055Y-305512D02*
Y-300787D01*
X5512Y-303150D02*
X10236D01*
X7874Y-305512D02*
Y-300787D01*
X5512Y-287402D02*
X10236D01*
X7874Y-289764D02*
Y-285039D01*
X46693Y-287402D02*
X51417D01*
X49055Y-289764D02*
Y-285039D01*
X308661Y-220472D02*
X313386D01*
X311024Y-222835D02*
Y-218110D01*
X308661Y-240472D02*
X313386D01*
X311024Y-242835D02*
Y-238110D01*
X308661Y-200472D02*
X313386D01*
X311024Y-202835D02*
Y-198110D01*
X308661Y-287402D02*
X313386D01*
X311024Y-289764D02*
Y-285039D01*
X308661Y-267402D02*
X313386D01*
X311024Y-269764D02*
Y-265039D01*
X308661Y-307402D02*
X313386D01*
X311024Y-309764D02*
Y-305039D01*
X308661Y-354331D02*
X313386D01*
X311024Y-356693D02*
Y-351969D01*
X308661Y-334331D02*
X313386D01*
X311024Y-336693D02*
Y-331968D01*
X308661Y-374331D02*
X313386D01*
X311024Y-376693D02*
Y-371969D01*
X254724Y-318898D02*
X261024D01*
X257874Y-322047D02*
Y-315748D01*
X278346Y-326772D02*
X284646D01*
X281496Y-329921D02*
Y-323622D01*
X231102Y-326772D02*
X237402D01*
X234252Y-329921D02*
Y-323622D01*
X278346Y-374803D02*
X284646D01*
X281496Y-377953D02*
Y-371654D01*
X231102Y-374803D02*
X237402D01*
X234252Y-377953D02*
Y-371654D01*
X254724Y-239370D02*
X261024D01*
X257874Y-242520D02*
Y-236221D01*
X278346Y-247244D02*
X284646D01*
X281496Y-250394D02*
Y-244094D01*
X231102Y-247244D02*
X237402D01*
X234252Y-250394D02*
Y-244094D01*
X278346Y-295276D02*
X284646D01*
X281496Y-298425D02*
Y-292126D01*
X231102Y-295276D02*
X237402D01*
X234252Y-298425D02*
Y-292126D01*
X72756Y-381890D02*
X77480D01*
X75118Y-384252D02*
Y-379528D01*
X62756Y-381890D02*
X67480D01*
X65118Y-384252D02*
Y-379528D01*
X52756Y-381890D02*
X57480D01*
X55118Y-384252D02*
Y-379528D01*
X187205Y-165354D02*
X190748D01*
X188976Y-167126D02*
Y-163583D01*
X195079Y-165354D02*
X198622D01*
X196850Y-167126D02*
Y-163583D01*
X202953Y-165354D02*
X206496D01*
X204724Y-167126D02*
Y-163583D01*
X210827Y-165354D02*
X214370D01*
X212598Y-167126D02*
Y-163583D01*
X218701Y-165354D02*
X222244D01*
X220472Y-167126D02*
Y-163583D01*
X226575Y-165354D02*
X230118D01*
X228346Y-167126D02*
Y-163583D01*
X234449Y-165354D02*
X237992D01*
X236221Y-167126D02*
Y-163583D01*
X242323Y-165354D02*
X245866D01*
X244094Y-167126D02*
Y-163583D01*
X250197Y-165354D02*
X253740D01*
X251969Y-167126D02*
Y-163583D01*
X258071Y-165354D02*
X261614D01*
X259842Y-167126D02*
Y-163583D01*
X265945Y-165354D02*
X269488D01*
X267717Y-167126D02*
Y-163583D01*
X273819Y-165354D02*
X277362D01*
X275590Y-167126D02*
Y-163583D01*
X281693Y-165354D02*
X285236D01*
X283465Y-167126D02*
Y-163583D01*
X289567Y-165354D02*
X293110D01*
X291339Y-167126D02*
Y-163583D01*
X297441Y-165354D02*
X300984D01*
X299213Y-167126D02*
Y-163583D01*
X305315Y-165354D02*
X308858D01*
X307087Y-167126D02*
Y-163583D01*
X313189Y-165354D02*
X316732D01*
X314961Y-167126D02*
Y-163583D01*
X246260Y-11811D02*
X249803D01*
X248031Y-13583D02*
Y-10039D01*
X238386Y-11811D02*
X241929D01*
X240158Y-13583D02*
Y-10039D01*
X230512Y-11811D02*
X234055D01*
X232283Y-13583D02*
Y-10039D01*
X222638Y-11811D02*
X226181D01*
X224410Y-13583D02*
Y-10039D01*
X214764Y-11811D02*
X218307D01*
X216535Y-13583D02*
Y-10039D01*
X206890Y-11811D02*
X210433D01*
X208661Y-13583D02*
Y-10039D01*
X199016Y-11811D02*
X202559D01*
X200787Y-13583D02*
Y-10039D01*
X191142Y-11811D02*
X194685D01*
X192913Y-13583D02*
Y-10039D01*
X17323Y-381890D02*
X22047D01*
X19685Y-384252D02*
Y-379528D01*
X17323Y-361910D02*
X22047D01*
X19685Y-364272D02*
Y-359547D01*
X7795Y-33521D02*
X11575D01*
X9685Y-35410D02*
Y-31631D01*
X7795Y-43523D02*
X11575D01*
X9685Y-45412D02*
Y-41633D01*
X7795Y-53525D02*
X11575D01*
X9685Y-55414D02*
Y-51635D01*
X7795Y-63526D02*
X11575D01*
X9685Y-65416D02*
Y-61637D01*
X7795Y-73528D02*
X11575D01*
X9685Y-75418D02*
Y-71639D01*
X7795Y-83530D02*
X11575D01*
X9685Y-85420D02*
Y-81640D01*
X7795Y-93532D02*
X11575D01*
X9685Y-95422D02*
Y-91642D01*
X7795Y-103534D02*
X11575D01*
X9685Y-105424D02*
Y-101644D01*
X7795Y-113536D02*
X11575D01*
X9685Y-115426D02*
Y-111646D01*
X7795Y-123538D02*
X11575D01*
X9685Y-125427D02*
Y-121648D01*
X7795Y-133539D02*
X11575D01*
X9685Y-135429D02*
Y-131650D01*
X7795Y-143541D02*
X11575D01*
X9685Y-145431D02*
Y-141652D01*
X7795Y-153543D02*
X11575D01*
X9685Y-155433D02*
Y-151653D01*
X7795Y-163545D02*
X11575D01*
X9685Y-165435D02*
Y-161655D01*
X7795Y-173547D02*
X11575D01*
X9685Y-175437D02*
Y-171657D01*
X7795Y-183549D02*
X11575D01*
X9685Y-185439D02*
Y-181659D01*
X7795Y-193551D02*
X11575D01*
X9685Y-195440D02*
Y-191661D01*
X7795Y-203553D02*
X11575D01*
X9685Y-205442D02*
Y-201663D01*
X7795Y-213554D02*
X11575D01*
X9685Y-215444D02*
Y-211665D01*
X7795Y-223556D02*
X11575D01*
X9685Y-225446D02*
Y-221667D01*
X7795Y-233558D02*
X11575D01*
X9685Y-235448D02*
Y-231668D01*
X7795Y-243560D02*
X11575D01*
X9685Y-245450D02*
Y-241670D01*
X17795Y-33521D02*
X21575D01*
X19685Y-35411D02*
Y-31631D01*
X17795Y-43523D02*
X21575D01*
X19685Y-45412D02*
Y-41633D01*
X17795Y-53525D02*
X21575D01*
X19685Y-55414D02*
Y-51635D01*
X17795Y-63526D02*
X21575D01*
X19685Y-65416D02*
Y-61637D01*
X17795Y-73528D02*
X21575D01*
X19685Y-75418D02*
Y-71639D01*
X17795Y-83530D02*
X21575D01*
X19685Y-85420D02*
Y-81640D01*
X17795Y-93532D02*
X21575D01*
X19685Y-95422D02*
Y-91642D01*
X17795Y-103534D02*
X21575D01*
X19685Y-105424D02*
Y-101644D01*
X17795Y-113536D02*
X21575D01*
X19685Y-115426D02*
Y-111646D01*
X17795Y-123538D02*
X21575D01*
X19685Y-125427D02*
Y-121648D01*
X17795Y-133540D02*
X21575D01*
X19685Y-135429D02*
Y-131650D01*
X17795Y-143541D02*
X21575D01*
X19685Y-145431D02*
Y-141652D01*
X17795Y-153543D02*
X21575D01*
X19685Y-155433D02*
Y-151654D01*
X17795Y-163545D02*
X21575D01*
X19685Y-165435D02*
Y-161655D01*
X17795Y-173547D02*
X21575D01*
X19685Y-175437D02*
Y-171657D01*
X17795Y-183549D02*
X21575D01*
X19685Y-185439D02*
Y-181659D01*
X17795Y-193551D02*
X21575D01*
X19685Y-195441D02*
Y-191661D01*
X17795Y-203553D02*
X21575D01*
X19685Y-205442D02*
Y-201663D01*
X17795Y-213555D02*
X21575D01*
X19685Y-215444D02*
Y-211665D01*
X17795Y-223556D02*
X21575D01*
X19685Y-225446D02*
Y-221667D01*
X17795Y-233558D02*
X21575D01*
X19685Y-235448D02*
Y-231668D01*
X17795Y-243560D02*
X21575D01*
X19685Y-245450D02*
Y-241670D01*
X147716Y-33521D02*
X151496D01*
X149606Y-35411D02*
Y-31631D01*
X147716Y-43523D02*
X151496D01*
X149606Y-45412D02*
Y-41633D01*
X147716Y-53525D02*
X151496D01*
X149606Y-55414D02*
Y-51635D01*
X147716Y-63526D02*
X151496D01*
X149606Y-65416D02*
Y-61637D01*
X147716Y-73528D02*
X151496D01*
X149606Y-75418D02*
Y-71639D01*
X147716Y-83530D02*
X151496D01*
X149606Y-85420D02*
Y-81640D01*
X147716Y-93532D02*
X151496D01*
X149606Y-95422D02*
Y-91642D01*
X147716Y-103534D02*
X151496D01*
X149606Y-105424D02*
Y-101644D01*
X147716Y-113536D02*
X151496D01*
X149606Y-115426D02*
Y-111646D01*
X147716Y-123538D02*
X151496D01*
X149606Y-125427D02*
Y-121648D01*
X147716Y-133540D02*
X151496D01*
X149606Y-135429D02*
Y-131650D01*
X147716Y-143541D02*
X151496D01*
X149606Y-145431D02*
Y-141652D01*
X147716Y-153543D02*
X151496D01*
X149606Y-155433D02*
Y-151654D01*
X147716Y-163545D02*
X151496D01*
X149606Y-165435D02*
Y-161655D01*
X147716Y-173547D02*
X151496D01*
X149606Y-175437D02*
Y-171657D01*
X147716Y-183549D02*
X151496D01*
X149606Y-185439D02*
Y-181659D01*
X147716Y-193551D02*
X151496D01*
X149606Y-195441D02*
Y-191661D01*
X147716Y-203553D02*
X151496D01*
X149606Y-205442D02*
Y-201663D01*
X147716Y-213555D02*
X151496D01*
X149606Y-215444D02*
Y-211665D01*
X147716Y-223556D02*
X151496D01*
X149606Y-225446D02*
Y-221667D01*
X147716Y-233558D02*
X151496D01*
X149606Y-235448D02*
Y-231668D01*
X147716Y-243560D02*
X151496D01*
X149606Y-245450D02*
Y-241670D01*
X157717Y-33521D02*
X161496D01*
X159606Y-35411D02*
Y-31631D01*
X157717Y-43523D02*
X161496D01*
X159606Y-45413D02*
Y-41633D01*
X157717Y-53525D02*
X161496D01*
X159606Y-55414D02*
Y-51635D01*
X157717Y-63527D02*
X161496D01*
X159606Y-65416D02*
Y-61637D01*
X157717Y-73528D02*
X161496D01*
X159606Y-75418D02*
Y-71639D01*
X157717Y-83530D02*
X161496D01*
X159606Y-85420D02*
Y-81640D01*
X157717Y-93532D02*
X161496D01*
X159606Y-95422D02*
Y-91642D01*
X157717Y-103534D02*
X161496D01*
X159606Y-105424D02*
Y-101644D01*
X157717Y-113536D02*
X161496D01*
X159606Y-115426D02*
Y-111646D01*
X157717Y-123538D02*
X161496D01*
X159606Y-125427D02*
Y-121648D01*
X157717Y-133540D02*
X161496D01*
X159606Y-135429D02*
Y-131650D01*
X157717Y-143541D02*
X161496D01*
X159606Y-145431D02*
Y-141652D01*
X157717Y-153543D02*
X161496D01*
X159606Y-155433D02*
Y-151654D01*
X157717Y-163545D02*
X161496D01*
X159606Y-165435D02*
Y-161655D01*
X157717Y-173547D02*
X161496D01*
X159606Y-175437D02*
Y-171657D01*
X157717Y-183549D02*
X161496D01*
X159606Y-185439D02*
Y-181659D01*
X157717Y-193551D02*
X161496D01*
X159606Y-195440D02*
Y-191661D01*
X157717Y-203553D02*
X161496D01*
X159606Y-205442D02*
Y-201663D01*
X157717Y-213555D02*
X161496D01*
X159606Y-215444D02*
Y-211665D01*
X157717Y-223556D02*
X161496D01*
X159606Y-225446D02*
Y-221667D01*
X157717Y-233558D02*
X161496D01*
X159606Y-235448D02*
Y-231668D01*
X157717Y-243560D02*
X161496D01*
X159606Y-245450D02*
Y-241670D01*
X139961Y-311024D02*
X143504D01*
X141732Y-312795D02*
Y-309252D01*
X139961Y-291339D02*
X143504D01*
X141732Y-293110D02*
Y-289567D01*
X80905Y-293307D02*
X84449D01*
X82677Y-295079D02*
Y-291535D01*
X80905Y-312992D02*
X84449D01*
X82677Y-314764D02*
Y-311221D01*
X163386Y-311339D02*
X167323D01*
X165354Y-313307D02*
Y-309370D01*
X163386Y-291339D02*
X167323D01*
X165354Y-293307D02*
Y-289370D01*
X116142Y-311024D02*
X120079D01*
X118110Y-312992D02*
Y-309055D01*
X116142Y-291024D02*
X120079D01*
X118110Y-292992D02*
Y-289055D01*
X174185Y-181102D02*
X177728D01*
X175957Y-182874D02*
Y-179331D01*
X174185Y-191102D02*
X177728D01*
X175957Y-192874D02*
Y-189331D01*
X174185Y-201102D02*
X177728D01*
X175957Y-202874D02*
Y-199331D01*
X174185Y-211102D02*
X177728D01*
X175957Y-212874D02*
Y-209331D01*
X174185Y-221102D02*
X177728D01*
X175957Y-222874D02*
Y-219331D01*
X178740Y-379764D02*
X183465D01*
X181102Y-382126D02*
Y-377402D01*
X178740Y-338583D02*
X183465D01*
X181102Y-340945D02*
Y-336221D01*
X205906Y-267047D02*
X209449D01*
X207677Y-268819D02*
Y-265276D01*
X205906Y-257047D02*
X209449D01*
X207677Y-258819D02*
Y-255276D01*
X205906Y-247047D02*
X209449D01*
X207677Y-248819D02*
Y-245276D01*
X127559Y-379468D02*
X132283D01*
X129921Y-381831D02*
Y-377106D01*
X127559Y-338287D02*
X132283D01*
X129921Y-340650D02*
Y-335925D01*
X157835Y-369016D02*
X161378D01*
X159606Y-370787D02*
Y-367244D01*
X157835Y-374016D02*
X161378D01*
X159606Y-375787D02*
Y-372244D01*
X157835Y-379016D02*
X161378D01*
X159606Y-380787D02*
Y-377244D01*
X175394Y-267047D02*
X178937D01*
X177165Y-268819D02*
Y-265276D01*
X175394Y-257047D02*
X178937D01*
X177165Y-258819D02*
Y-255276D01*
X175394Y-247047D02*
X178937D01*
X177165Y-248819D02*
Y-245276D01*
X108465Y-367953D02*
X112008D01*
X110236Y-369724D02*
Y-366181D01*
X108465Y-372953D02*
X112008D01*
X110236Y-374724D02*
Y-371181D01*
X108465Y-377953D02*
X112008D01*
X110236Y-379724D02*
Y-376181D01*
X190157Y-267047D02*
X193701D01*
X191929Y-268819D02*
Y-265276D01*
X190157Y-257047D02*
X193701D01*
X191929Y-258819D02*
Y-255276D01*
X190157Y-247047D02*
X193701D01*
X191929Y-248819D02*
Y-245276D01*
X190157Y-311024D02*
X193701D01*
X191929Y-312795D02*
Y-309252D01*
X190157Y-301024D02*
X193701D01*
X191929Y-302795D02*
Y-299252D01*
X190157Y-291024D02*
X193701D01*
X191929Y-292795D02*
Y-289252D01*
X205906Y-311024D02*
X209449D01*
X207677Y-312795D02*
Y-309252D01*
X205906Y-301024D02*
X209449D01*
X207677Y-302795D02*
Y-299252D01*
X205906Y-291024D02*
X209449D01*
X207677Y-292795D02*
Y-289252D01*
X-103697Y-242457D02*
X-91098D01*
X-97398Y-248756D02*
Y-236157D01*
X-35193Y-242457D02*
X-22594D01*
X-28894Y-248756D02*
Y-236157D01*
X-35193Y-64504D02*
X-22594D01*
X-28894Y-70803D02*
Y-58205D01*
X-103697Y-64504D02*
X-91098D01*
X-97398Y-70803D02*
Y-58205D01*
X332794Y-386000D02*
X344605D01*
X338700Y-391905D02*
Y-380095D01*
X332794Y-8000D02*
X344605D01*
X338700Y-13905D02*
Y-2094D01*
X-133405Y-386000D02*
X-121595D01*
X-127500Y-391905D02*
Y-380095D01*
X-133405Y-9500D02*
X-121595D01*
X-127500Y-15405D02*
Y-3594D01*
X211066Y-103666D02*
X213866D01*
X212466Y-105066D02*
Y-102266D01*
X226900Y-114000D02*
X229700D01*
X228300Y-115400D02*
Y-112600D01*
X202800Y-118300D02*
X205600D01*
X204200Y-119700D02*
Y-116900D01*
X188000Y-185700D02*
X190800D01*
X189400Y-187100D02*
Y-184300D01*
X200100Y-198400D02*
X202900D01*
X201500Y-199800D02*
Y-197000D01*
X117000Y-240200D02*
X119800D01*
X118400Y-241600D02*
Y-238800D01*
X161700Y-282100D02*
X164500D01*
X163100Y-283500D02*
Y-280700D01*
X144269Y-282100D02*
X147069D01*
X145669Y-283500D02*
Y-280700D01*
X173400Y-282100D02*
X176200D01*
X174800Y-283500D02*
Y-280700D01*
X108700Y-239900D02*
X111500D01*
X110100Y-241300D02*
Y-238500D01*
X108700Y-282100D02*
X111500D01*
X110100Y-283500D02*
Y-280700D01*
X208000Y-175200D02*
X210800D01*
X209400Y-176600D02*
Y-173800D01*
X224700Y-198200D02*
X227500D01*
X226100Y-199600D02*
Y-196800D01*
X213400Y-198500D02*
X216200D01*
X214800Y-199900D02*
Y-197100D01*
X224100Y-236500D02*
X226900D01*
X225500Y-237900D02*
Y-235100D01*
X213000Y-236800D02*
X215800D01*
X214400Y-238200D02*
Y-235400D01*
X63000Y-277600D02*
X65800D01*
X64400Y-279000D02*
Y-276200D01*
X252900Y-228700D02*
X255700D01*
X254300Y-230100D02*
Y-227300D01*
X252700Y-222700D02*
X255500D01*
X254100Y-224100D02*
Y-221300D01*
X252600Y-216700D02*
X255400D01*
X254000Y-218100D02*
Y-215300D01*
X252537Y-210630D02*
X255337D01*
X253937Y-212030D02*
Y-209230D01*
X253888Y-199803D02*
X256688D01*
X255288Y-201203D02*
Y-198403D01*
M02*
