G04*
G04 #@! TF.GenerationSoftware,Altium Limited,Altium Designer,19.0.4 (130)*
G04*
G04 Layer_Color=255*
%FSLAX25Y25*%
%MOIN*%
G70*
G01*
G75*
%ADD11C,0.01000*%
%ADD16R,0.02500X0.06500*%
%ADD17R,0.03937X0.05709*%
%ADD18R,0.03937X0.05512*%
%ADD39C,0.05906*%
%ADD40C,0.11811*%
%ADD41C,0.05512*%
%ADD42C,0.07874*%
%ADD43R,0.07874X0.07874*%
%ADD44O,0.05000X0.06299*%
%ADD45R,0.05906X0.05906*%
%ADD46C,0.05906*%
%ADD47C,0.06496*%
%ADD48R,0.07874X0.07874*%
%ADD49O,0.07874X0.03937*%
%ADD50O,0.07874X0.03937*%
D11*
X-131500Y-500D02*
X346000D01*
X-137500D02*
X-131500D01*
X-137500D02*
X-137500Y-393500D01*
X346000D01*
Y-500D01*
X393701Y-295276D02*
X393701Y-295276D01*
D16*
X284850Y-205709D02*
D03*
X279850D02*
D03*
X274850D02*
D03*
X269850D02*
D03*
X284850Y-228150D02*
D03*
X279850D02*
D03*
X274850D02*
D03*
X269850D02*
D03*
D17*
X274338Y-193898D02*
D03*
X283787D02*
D03*
D18*
X283850Y-182087D02*
D03*
X274401D02*
D03*
D39*
X-53500Y-246000D02*
D03*
X-73500D02*
D03*
X-48264Y-60961D02*
D03*
X-78264D02*
D03*
X9685Y-33521D02*
D03*
Y-43523D02*
D03*
Y-53525D02*
D03*
Y-63526D02*
D03*
Y-73528D02*
D03*
Y-83530D02*
D03*
Y-93532D02*
D03*
Y-103534D02*
D03*
Y-113536D02*
D03*
Y-123538D02*
D03*
Y-133539D02*
D03*
Y-143541D02*
D03*
Y-153543D02*
D03*
Y-163545D02*
D03*
Y-173547D02*
D03*
Y-183549D02*
D03*
Y-193551D02*
D03*
Y-203553D02*
D03*
Y-213554D02*
D03*
Y-223556D02*
D03*
Y-233558D02*
D03*
Y-243560D02*
D03*
X19685Y-33521D02*
D03*
Y-43523D02*
D03*
Y-53525D02*
D03*
Y-63526D02*
D03*
Y-73528D02*
D03*
Y-83530D02*
D03*
Y-93532D02*
D03*
Y-103534D02*
D03*
Y-113536D02*
D03*
Y-123538D02*
D03*
Y-133540D02*
D03*
Y-143541D02*
D03*
Y-153543D02*
D03*
Y-163545D02*
D03*
Y-173547D02*
D03*
Y-183549D02*
D03*
Y-193551D02*
D03*
Y-203553D02*
D03*
Y-213555D02*
D03*
Y-223556D02*
D03*
Y-233558D02*
D03*
Y-243560D02*
D03*
X149606Y-33521D02*
D03*
Y-43523D02*
D03*
Y-53525D02*
D03*
Y-63526D02*
D03*
Y-73528D02*
D03*
Y-83530D02*
D03*
Y-93532D02*
D03*
Y-103534D02*
D03*
Y-113536D02*
D03*
Y-123538D02*
D03*
Y-133540D02*
D03*
Y-143541D02*
D03*
Y-153543D02*
D03*
Y-163545D02*
D03*
Y-173547D02*
D03*
Y-183549D02*
D03*
Y-193551D02*
D03*
Y-203553D02*
D03*
Y-213555D02*
D03*
Y-223556D02*
D03*
Y-233558D02*
D03*
Y-243560D02*
D03*
X159606Y-33521D02*
D03*
Y-43523D02*
D03*
Y-53525D02*
D03*
Y-63527D02*
D03*
Y-73528D02*
D03*
Y-83530D02*
D03*
Y-93532D02*
D03*
Y-103534D02*
D03*
Y-113536D02*
D03*
Y-123538D02*
D03*
Y-133540D02*
D03*
Y-143541D02*
D03*
Y-153543D02*
D03*
Y-163545D02*
D03*
Y-173547D02*
D03*
Y-183549D02*
D03*
Y-193551D02*
D03*
Y-203553D02*
D03*
Y-213555D02*
D03*
Y-223556D02*
D03*
Y-233558D02*
D03*
Y-243560D02*
D03*
X141732Y-291339D02*
D03*
X175957Y-191102D02*
D03*
Y-201102D02*
D03*
Y-211102D02*
D03*
Y-221102D02*
D03*
X207677Y-257047D02*
D03*
Y-247047D02*
D03*
X177165Y-257047D02*
D03*
Y-247047D02*
D03*
X191929Y-257047D02*
D03*
Y-247047D02*
D03*
Y-301024D02*
D03*
Y-291024D02*
D03*
X207677Y-301024D02*
D03*
Y-291024D02*
D03*
D40*
X-35500Y-288500D02*
D03*
Y-308480D02*
D03*
X311024Y-220472D02*
D03*
Y-240472D02*
D03*
Y-200472D02*
D03*
Y-287402D02*
D03*
Y-267402D02*
D03*
Y-307402D02*
D03*
Y-354331D02*
D03*
Y-334331D02*
D03*
Y-374331D02*
D03*
X257874Y-318898D02*
D03*
X281496Y-326772D02*
D03*
X234252D02*
D03*
X281496Y-374803D02*
D03*
X234252D02*
D03*
X257874Y-239370D02*
D03*
X281496Y-247244D02*
D03*
X234252D02*
D03*
X281496Y-295276D02*
D03*
X234252D02*
D03*
X19685Y-381890D02*
D03*
Y-361910D02*
D03*
D41*
X145669Y-359803D02*
D03*
Y-389803D02*
D03*
X154291Y-389764D02*
D03*
X184291D02*
D03*
X98425Y-359803D02*
D03*
Y-389803D02*
D03*
X108110Y-389764D02*
D03*
X138110D02*
D03*
D42*
X49055Y-334646D02*
D03*
X7874Y-318898D02*
D03*
X49055Y-303150D02*
D03*
X7874Y-287402D02*
D03*
X75118Y-381890D02*
D03*
X65118D02*
D03*
X181102Y-338583D02*
D03*
X129921Y-338287D02*
D03*
D43*
X7874Y-334646D02*
D03*
X49055Y-318898D02*
D03*
X7874Y-303150D02*
D03*
X49055Y-287402D02*
D03*
X55118Y-381890D02*
D03*
D44*
X188976Y-165354D02*
D03*
X196850Y-165354D02*
D03*
X204724D02*
D03*
X212598D02*
D03*
X220472D02*
D03*
X228346D02*
D03*
X236221D02*
D03*
X244094D02*
D03*
X251969D02*
D03*
X259842D02*
D03*
X267717D02*
D03*
X275590D02*
D03*
X283465D02*
D03*
X291339D02*
D03*
X299213D02*
D03*
X307087D02*
D03*
X314961D02*
D03*
X248031Y-11811D02*
D03*
X240158D02*
D03*
X232283D02*
D03*
X224410D02*
D03*
X216535D02*
D03*
X208661D02*
D03*
X200787D02*
D03*
X192913D02*
D03*
D45*
X141732Y-311024D02*
D03*
X82677Y-312992D02*
D03*
X175957Y-181102D02*
D03*
X207677Y-267047D02*
D03*
X177165D02*
D03*
X191929D02*
D03*
Y-311024D02*
D03*
X207677D02*
D03*
D46*
X82677Y-293307D02*
D03*
D47*
X165354Y-311339D02*
D03*
Y-291339D02*
D03*
X118110Y-311024D02*
D03*
Y-291024D02*
D03*
D48*
X181102Y-379764D02*
D03*
X129921Y-379468D02*
D03*
D49*
X159606Y-369016D02*
D03*
Y-374016D02*
D03*
X110236Y-367953D02*
D03*
Y-372953D02*
D03*
D50*
X159606Y-379016D02*
D03*
X110236Y-377953D02*
D03*
M02*
