M48
;Layer_Color=9474304
;FILE_FORMAT=2:5
INCH,LZ
;TYPE=PLATED
T1F00S00C0.02800
T2F00S00C0.03346
T3F00S00C0.03543
T4F00S00C0.03780
T5F00S00C0.03937
T6F00S00C0.04724
T7F00S00C0.06299
T8F00S00C0.11811
T9F00S00C0.12598
%
T01
X00644Y-02776
X01101Y-02821
Y-02399
X01184Y-02402
X0145669Y-02821
X01631
X01748
X02144Y-02368
X02255Y-02365
X02543Y-02287
X02541Y-02227
X0254Y-02167
X0253937Y-021063
X0255288Y-0199803
X02261Y-01982
X02148Y-01985
X02015Y-01984
X01894Y-01857
X02094Y-01752
X02042Y-01183
X0212466Y-0103666
X02283Y-0114
T02
X013811Y-0389764
X0145669Y-0389803
X0154291Y-0389764
X0184291
X0145669Y-0359803
X0098425
Y-0389803
X010811Y-0389764
T03
X0159606Y-0379016
Y-0374016
Y-0369016
X0110236Y-0367953
Y-0372953
Y-0377953
X-00535Y-0246
X-00735
X0082677Y-0293307
Y-0312992
X0141732Y-0311024
Y-0291339
X0191929Y-0291024
Y-0301024
Y-0311024
X0207677
Y-0301024
Y-0291024
Y-0267047
Y-0257047
Y-0247047
X0191929
Y-0257047
Y-0267047
X0177165
Y-0257047
Y-0247047
X0175957Y-0221102
Y-0211102
Y-0201102
Y-0191102
Y-0181102
X0188976Y-0165354
X019685Y-0165354
X0204724
X0212598
X0220472
X0228346
X0236221
X0244094
X0251969
X0259842
X0267717
X027559
X0283465
X0291339
X0299213
X0307087
X0314961
X0248031Y-0011811
X0240158
X0232283
X022441
X0216535
X0208661
X0200787
X0192913
X-0048264Y-0060961
X-0078264
T04
X0009685Y-024356
X0019685Y-024356
Y-0233558
X0009685Y-0233558
Y-0223556
X0019685Y-0223556
Y-0213555
X0009685Y-0213554
Y-0203553
X0019685Y-0203553
Y-0193551
X0009685Y-0193551
Y-0183549
X0019685Y-0183549
Y-0173547
X0009685Y-0173547
Y-0163545
X0019685Y-0163545
X0149606
X0159606Y-0163545
Y-0173547
X0149606Y-0173547
Y-0183549
X0159606Y-0183549
Y-0193551
X0149606Y-0193551
Y-0203553
X0159606Y-0203553
Y-0213555
X0149606Y-0213555
Y-0223556
X0159606Y-0223556
Y-0233558
X0149606Y-0233558
Y-024356
X0159606Y-024356
Y-0153543
X0149606Y-0153543
Y-0143541
X0159606
Y-013354
X0149606Y-013354
Y-0123538
X0159606Y-0123538
Y-0113536
X0149606Y-0113536
Y-0103534
X0159606Y-0103534
Y-0093532
X0149606Y-0093532
Y-008353
X0159606Y-008353
Y-0073528
X0149606Y-0073528
Y-0063526
X0159606Y-0063527
Y-0053525
X0149606Y-0053525
Y-0043523
X0159606Y-0043523
Y-0033521
X0149606Y-0033521
X0019685
X0009685Y-0033521
Y-0043523
X0019685Y-0043523
Y-0053525
X0009685Y-0053525
Y-0063526
X0019685Y-0063526
Y-0073528
X0009685Y-0073528
Y-008353
X0019685Y-008353
Y-0093532
X0009685Y-0093532
Y-0103534
X0019685Y-0103534
Y-0113536
X0009685Y-0113536
Y-0123538
X0019685Y-0123538
Y-013354
X0009685Y-0133539
Y-0143541
X0019685Y-0143541
Y-0153543
X0009685Y-0153543
T05
X011811Y-0311024
Y-0291024
X0165354Y-0291339
Y-0311339
T06
X0311024Y-0374331
Y-0354331
Y-0334331
X0181102Y-0338583
Y-0379764
X0129921Y-0379468
Y-0338287
X0049055Y-0334646
X0007874
X0019685Y-036191
Y-038189
X0055118
X0065118
X0075118
X-00355Y-030848
Y-02885
X0007874Y-0287402
Y-030315
Y-0318898
X0049055
Y-030315
Y-0287402
X0311024Y-0287402
Y-0267402
Y-0240472
Y-0220472
Y-0200472
Y-0307402
T07
X0234252Y-0374803
X0281496
Y-0326772
X0234252
Y-0295276
X0257874Y-0318898
X0281496Y-0295276
Y-0247244
X0257874Y-023937
X0234252Y-0247244
T08
X03387Y-0386
X-01275
X03387Y-0008
X-01275Y-00095
T09
X-0097398Y-0242457
X-0028894
Y-0064504
X-0097398
M30
