G04*
G04 #@! TF.GenerationSoftware,Altium Limited,Altium Designer,19.0.4 (130)*
G04*
G04 Layer_Color=65535*
%FSLAX25Y25*%
%MOIN*%
G70*
G01*
G75*
%ADD10C,0.00787*%
%ADD11C,0.01000*%
%ADD12C,0.00984*%
%ADD13C,0.00591*%
%ADD14R,0.03150X0.11024*%
%ADD15R,0.11024X0.03150*%
D10*
X267350Y-218179D02*
G03*
X267350Y-215679I0J1250D01*
G01*
X157480Y-301181D02*
G03*
X157480Y-301181I-15748J0D01*
G01*
X108268Y-303150D02*
G03*
X108268Y-303150I-25591J0D01*
G01*
X153622Y-382562D02*
G03*
X153622Y-365470I5984J8546D01*
G01*
X104252Y-381499D02*
G03*
X104252Y-364406I5984J8546D01*
G01*
X145669Y-385703D02*
Y-384803D01*
Y-364803D02*
Y-363903D01*
X142669Y-384803D02*
X145669D01*
X142669D02*
Y-364803D01*
X148669D01*
Y-384803D02*
Y-364803D01*
X145669Y-384803D02*
X148669D01*
X179291Y-389764D02*
X180191D01*
X158391D02*
X159291D01*
X179291Y-392764D02*
Y-389764D01*
X159291Y-392764D02*
X179291D01*
X159291D02*
Y-386764D01*
X179291D01*
Y-389764D02*
Y-386764D01*
X98425Y-385703D02*
Y-384803D01*
Y-364803D02*
Y-363903D01*
X95425Y-384803D02*
X98425D01*
X95425D02*
Y-364803D01*
X101425D01*
Y-384803D02*
Y-364803D01*
X98425Y-384803D02*
X101425D01*
X133110Y-389764D02*
X134010D01*
X112210D02*
X113110D01*
X133110Y-392764D02*
Y-389764D01*
X113110Y-392764D02*
X133110D01*
X113110D02*
Y-386764D01*
X133110D01*
Y-389764D02*
Y-386764D01*
X18032Y-340158D02*
X38898D01*
X18032Y-329134D02*
X38898D01*
X18032Y-340158D02*
Y-329134D01*
Y-313386D02*
X38898D01*
X18032Y-324410D02*
X38898D01*
Y-313386D01*
X18032Y-308661D02*
X38898D01*
X18032Y-297638D02*
X38898D01*
X18032Y-308661D02*
Y-297638D01*
Y-281890D02*
X38898D01*
X18032Y-292913D02*
X38898D01*
Y-281890D01*
X267350Y-221612D02*
X287350D01*
Y-212246D01*
X267350D02*
X287350D01*
X267350Y-215679D02*
Y-212246D01*
Y-221612D02*
Y-218179D01*
X45118Y-371890D02*
X85118D01*
Y-381890D02*
Y-371890D01*
Y-381890D02*
X90118D01*
Y-391890D02*
Y-381890D01*
X45118Y-391890D02*
X90118D01*
X45118D02*
Y-371890D01*
X170276Y-316299D02*
Y-286378D01*
X160433Y-316299D02*
Y-286378D01*
X170276D01*
X160433Y-316299D02*
X170276D01*
X123031Y-315984D02*
Y-286063D01*
X113189Y-315984D02*
Y-286063D01*
X123031D01*
X113189Y-315984D02*
X123031D01*
X170957Y-226102D02*
X180957D01*
X170957D02*
Y-176102D01*
X180957Y-226102D02*
Y-176102D01*
X170957D02*
X180957D01*
X175591Y-369606D02*
X186614D01*
X175591D02*
Y-348740D01*
X186614Y-369606D02*
Y-348740D01*
X212677Y-272047D02*
Y-242047D01*
X202677D02*
X212677D01*
X202677Y-272047D02*
Y-242047D01*
Y-272047D02*
X212677D01*
X124409Y-369311D02*
X135433D01*
X124409D02*
Y-348445D01*
X135433Y-369311D02*
Y-348445D01*
X153622Y-382562D02*
Y-365470D01*
X182165Y-272047D02*
Y-242047D01*
X172165D02*
X182165D01*
X172165Y-272047D02*
Y-242047D01*
Y-272047D02*
X182165D01*
X104252Y-381499D02*
Y-364406D01*
X196929Y-272047D02*
Y-242047D01*
X186929D02*
X196929D01*
X186929Y-272047D02*
Y-242047D01*
Y-272047D02*
X196929D01*
X277882Y-191437D02*
X280244D01*
X277882Y-196358D02*
X280244D01*
X196929Y-316024D02*
Y-286024D01*
X186929D02*
X196929D01*
X186929Y-316024D02*
Y-286024D01*
Y-316024D02*
X196929D01*
X277944Y-184449D02*
X280307D01*
X277944Y-179724D02*
X280307D01*
X212677Y-316024D02*
Y-286024D01*
X202677D02*
X212677D01*
X202677Y-316024D02*
Y-286024D01*
Y-316024D02*
X212677D01*
D11*
X70803Y-3799D02*
G03*
X97781Y-3599I13488J200D01*
G01*
X-110390Y-253874D02*
Y-53087D01*
X-16689D01*
Y-253874D02*
Y-53087D01*
X-110390Y-253874D02*
X-16689D01*
X-17784Y-318323D02*
Y-278953D01*
X-53216D02*
X-17784D01*
X-53216Y-318323D02*
Y-278953D01*
Y-318323D02*
X-17784D01*
X328740Y-250315D02*
Y-190630D01*
X293307Y-250315D02*
X328740D01*
X293307Y-190630D02*
X328740D01*
X293307Y-250315D02*
Y-190630D01*
X293307Y-317244D02*
Y-257559D01*
X328740D01*
X293307Y-317244D02*
X328740D01*
Y-257559D01*
X293307Y-384173D02*
Y-324488D01*
X328740D01*
X293307Y-384173D02*
X328740D01*
Y-324488D01*
X245496Y-374772D02*
X252246D01*
X263496D02*
X275496D01*
X239496D02*
X247496D01*
X257496Y-360772D02*
X257874Y-318898D01*
X239496Y-338772D02*
X243496D01*
X245496Y-342772D01*
X233496Y-338772D02*
Y-332772D01*
Y-338772D02*
X239496D01*
X245496Y-342772D02*
X247496Y-336772D01*
X249496Y-342772D01*
X251496Y-336772D01*
X253496Y-342772D01*
X255496Y-336772D01*
X257496Y-342772D01*
X259496Y-336772D01*
X261496Y-342772D01*
X263496Y-336772D01*
X265496Y-342772D01*
X267496Y-336772D01*
X269496Y-342772D01*
X271496Y-338772D01*
X281496D01*
Y-332772D01*
X227362Y-313386D02*
X288386D01*
Y-388583D02*
Y-313386D01*
X227362Y-388583D02*
Y-313386D01*
Y-388583D02*
X288386D01*
X257496Y-360772D02*
X263228Y-374881D01*
X245496Y-295244D02*
X252246D01*
X263496D02*
X275496D01*
X239496D02*
X247496D01*
X257496Y-281244D02*
X257874Y-239370D01*
X239496Y-259244D02*
X243496D01*
X245496Y-263244D01*
X233496Y-259244D02*
Y-253244D01*
Y-259244D02*
X239496D01*
X245496Y-263244D02*
X247496Y-257244D01*
X249496Y-263244D01*
X251496Y-257244D01*
X253496Y-263244D01*
X255496Y-257244D01*
X257496Y-263244D01*
X259496Y-257244D01*
X261496Y-263244D01*
X263496Y-257244D01*
X265496Y-263244D01*
X267496Y-257244D01*
X269496Y-263244D01*
X271496Y-259244D01*
X281496D01*
Y-253244D01*
X227362Y-233858D02*
X288386D01*
Y-309055D02*
Y-233858D01*
X227362Y-309055D02*
Y-233858D01*
Y-309055D02*
X288386D01*
X257496Y-281244D02*
X263228Y-295353D01*
X171063Y-171260D02*
Y-5906D01*
X328543D01*
X171063Y-171260D02*
X328543D01*
Y-5906D01*
X1969Y-391437D02*
Y-352067D01*
Y-391437D02*
X37402D01*
Y-352067D01*
X1969D02*
X37402D01*
X4665Y-3501D02*
X165689D01*
X4665D02*
X4665Y-273973D01*
X135650D01*
X165689D01*
X165689Y-3501D02*
X165689Y-273973D01*
X4764Y-27615D02*
X25728D01*
X26221D02*
X165492D01*
X25728D02*
X25728Y-251237D01*
X4764D02*
X25728D01*
X165591D01*
X143642D02*
Y-27615D01*
X-79774Y-261748D02*
X-73776D01*
Y-257749D01*
X-52122Y-261748D02*
X-58120D01*
X-52122Y-257749D01*
X-58120D01*
X-81742Y-49150D02*
X-77743D01*
X-75744Y-47150D01*
X-77743Y-45151D01*
X-81742D01*
Y-40152D02*
Y-42152D01*
X-80743Y-43152D01*
X-76744D01*
X-75744Y-42152D01*
Y-40152D01*
X-76744Y-39153D01*
X-80743D01*
X-81742Y-40152D01*
X-78743Y-31155D02*
Y-27157D01*
X-80743Y-29156D02*
X-76744D01*
X-50246Y-49150D02*
X-46247D01*
X-44248Y-47150D01*
X-46247Y-45151D01*
X-50246D01*
Y-40152D02*
Y-42152D01*
X-49246Y-43152D01*
X-45248D01*
X-44248Y-42152D01*
Y-40152D01*
X-45248Y-39153D01*
X-49246D01*
X-50246Y-40152D01*
X-47247Y-31155D02*
Y-27157D01*
X29435Y-373721D02*
X33434D01*
X35433Y-371721D01*
X33434Y-369722D01*
X29435D01*
X30435Y-363724D02*
X29435Y-364723D01*
Y-366723D01*
X30435Y-367722D01*
X34433D01*
X35433Y-366723D01*
Y-364723D01*
X34433Y-363724D01*
X30435Y-357726D02*
X29435Y-358725D01*
Y-360725D01*
X30435Y-361724D01*
X34433D01*
X35433Y-360725D01*
Y-358725D01*
X34433Y-357726D01*
X4687Y-381533D02*
X3687Y-382533D01*
Y-384532D01*
X4687Y-385531D01*
X8685D01*
X9685Y-384532D01*
Y-382533D01*
X8685Y-381533D01*
X6686D01*
Y-383532D01*
X9685Y-379533D02*
X3687D01*
X9685Y-375535D01*
X3687D01*
Y-373535D02*
X9685D01*
Y-370536D01*
X8685Y-369537D01*
X4687D01*
X3687Y-370536D01*
Y-373535D01*
X45766Y-362492D02*
Y-367490D01*
X46766Y-368490D01*
X48765D01*
X49765Y-367490D01*
Y-362492D01*
X51764D02*
X55763D01*
Y-363491D01*
X51764Y-367490D01*
Y-368490D01*
X267409Y-231222D02*
Y-226224D01*
X266409Y-225224D01*
X264410D01*
X263410Y-226224D01*
Y-231222D01*
X257412D02*
X261411D01*
Y-228223D01*
X259412Y-229223D01*
X258412D01*
X257412Y-228223D01*
Y-226224D01*
X258412Y-225224D01*
X260411D01*
X261411Y-226224D01*
X171566Y3608D02*
Y-1390D01*
X172566Y-2390D01*
X174565D01*
X175565Y-1390D01*
Y3608D01*
X180563Y-2390D02*
Y3608D01*
X177564Y609D01*
X181563D01*
X5166Y6008D02*
Y1010D01*
X6166Y10D01*
X8165D01*
X9165Y1010D01*
Y6008D01*
X11164Y10D02*
X13164D01*
X12164D01*
Y6008D01*
X11164Y5009D01*
X158265Y-353191D02*
X157265Y-352192D01*
X155266D01*
X154266Y-353191D01*
Y-354191D01*
X155266Y-355191D01*
X157265D01*
X158265Y-356190D01*
Y-357190D01*
X157265Y-358190D01*
X155266D01*
X154266Y-357190D01*
X164263Y-358190D02*
X160264D01*
X164263Y-354191D01*
Y-353191D01*
X163263Y-352192D01*
X161264D01*
X160264Y-353191D01*
X108865Y-352191D02*
X107865Y-351192D01*
X105866D01*
X104866Y-352191D01*
Y-353191D01*
X105866Y-354191D01*
X107865D01*
X108865Y-355190D01*
Y-356190D01*
X107865Y-357190D01*
X105866D01*
X104866Y-356190D01*
X110864Y-357190D02*
X112864D01*
X111864D01*
Y-351192D01*
X110864Y-352191D01*
X226378Y-397638D02*
Y-391640D01*
X229377D01*
X230377Y-392639D01*
Y-394639D01*
X229377Y-395638D01*
X226378D01*
X228377D02*
X230377Y-397638D01*
X235375D02*
X233376D01*
X232376Y-396638D01*
Y-394639D01*
X233376Y-393639D01*
X235375D01*
X236375Y-394639D01*
Y-395638D01*
X232376D01*
X238374Y-397638D02*
X240373D01*
X239374D01*
Y-391640D01*
X238374D01*
X244372Y-393639D02*
X246372D01*
X247371Y-394639D01*
Y-397638D01*
X244372D01*
X243372Y-396638D01*
X244372Y-395638D01*
X247371D01*
X249371Y-393639D02*
Y-396638D01*
X250370Y-397638D01*
X253369D01*
Y-398638D01*
X252369Y-399637D01*
X251370D01*
X253369Y-397638D02*
Y-393639D01*
X259367Y-397638D02*
X255369D01*
X259367Y-393639D01*
Y-392639D01*
X258368Y-391640D01*
X256368D01*
X255369Y-392639D01*
X226378Y-318110D02*
Y-312112D01*
X229377D01*
X230377Y-313112D01*
Y-315111D01*
X229377Y-316111D01*
X226378D01*
X228377D02*
X230377Y-318110D01*
X235375D02*
X233376D01*
X232376Y-317111D01*
Y-315111D01*
X233376Y-314111D01*
X235375D01*
X236375Y-315111D01*
Y-316111D01*
X232376D01*
X238374Y-318110D02*
X240373D01*
X239374D01*
Y-312112D01*
X238374D01*
X244372Y-314111D02*
X246372D01*
X247371Y-315111D01*
Y-318110D01*
X244372D01*
X243372Y-317111D01*
X244372Y-316111D01*
X247371D01*
X249371Y-314111D02*
Y-317111D01*
X250370Y-318110D01*
X253369D01*
Y-319110D01*
X252369Y-320110D01*
X251370D01*
X253369Y-318110D02*
Y-314111D01*
X255369Y-318110D02*
X257368D01*
X256368D01*
Y-312112D01*
X255369Y-313112D01*
X141732Y-370866D02*
X147730D01*
Y-373865D01*
X146731Y-374865D01*
X144731D01*
X143732Y-373865D01*
Y-370866D01*
Y-372866D02*
X141732Y-374865D01*
X147730Y-380863D02*
Y-376864D01*
X144731D01*
X145731Y-378864D01*
Y-379863D01*
X144731Y-380863D01*
X142732D01*
X141732Y-379863D01*
Y-377864D01*
X142732Y-376864D01*
X94488Y-370866D02*
X100486D01*
Y-373865D01*
X99487Y-374865D01*
X97487D01*
X96487Y-373865D01*
Y-370866D01*
Y-372866D02*
X94488Y-374865D01*
Y-379863D02*
X100486D01*
X97487Y-376864D01*
Y-380863D01*
X165354Y-389764D02*
Y-383766D01*
X168353D01*
X169353Y-384765D01*
Y-386765D01*
X168353Y-387764D01*
X165354D01*
X167354D02*
X169353Y-389764D01*
X171352Y-384765D02*
X172352Y-383766D01*
X174351D01*
X175351Y-384765D01*
Y-385765D01*
X174351Y-386765D01*
X173352D01*
X174351D01*
X175351Y-387764D01*
Y-388764D01*
X174351Y-389764D01*
X172352D01*
X171352Y-388764D01*
X118110Y-389764D02*
Y-383766D01*
X121109D01*
X122109Y-384765D01*
Y-386765D01*
X121109Y-387764D01*
X118110D01*
X120110D02*
X122109Y-389764D01*
X128107D02*
X124108D01*
X128107Y-385765D01*
Y-384765D01*
X127107Y-383766D01*
X125108D01*
X124108Y-384765D01*
X271266Y-174190D02*
Y-168192D01*
X274265D01*
X275265Y-169191D01*
Y-171191D01*
X274265Y-172190D01*
X271266D01*
X273266D02*
X275265Y-174190D01*
X277264D02*
X279263D01*
X278264D01*
Y-168192D01*
X277264Y-169191D01*
X333500Y-326500D02*
X339498D01*
Y-329499D01*
X338498Y-330499D01*
X336499D01*
X335499Y-329499D01*
Y-326500D01*
X333500Y-332498D02*
Y-334497D01*
Y-333498D01*
X339498D01*
X338498Y-332498D01*
X333500Y-337496D02*
Y-339496D01*
Y-338496D01*
X339498D01*
X338498Y-337496D01*
X332500Y-342495D02*
Y-346494D01*
X333500Y-348493D02*
X339498D01*
Y-351492D01*
X338498Y-352492D01*
X336499D01*
X335499Y-351492D01*
Y-348493D01*
Y-350492D02*
X333500Y-352492D01*
Y-357490D02*
Y-355491D01*
X334500Y-354491D01*
X336499D01*
X337499Y-355491D01*
Y-357490D01*
X336499Y-358490D01*
X335499D01*
Y-354491D01*
X333500Y-360489D02*
Y-362488D01*
Y-361489D01*
X339498D01*
Y-360489D01*
X337499Y-366487D02*
Y-368486D01*
X336499Y-369486D01*
X333500D01*
Y-366487D01*
X334500Y-365487D01*
X335499Y-366487D01*
Y-369486D01*
X337499Y-371485D02*
X334500D01*
X333500Y-372485D01*
Y-375484D01*
X332500D01*
X331501Y-374484D01*
Y-373485D01*
X333500Y-375484D02*
X337499D01*
X333500Y-381482D02*
Y-377484D01*
X337499Y-381482D01*
X338498D01*
X339498Y-380483D01*
Y-378483D01*
X338498Y-377484D01*
X339500Y-315500D02*
X333502D01*
Y-312501D01*
X334502Y-311501D01*
X336501D01*
X337501Y-312501D01*
Y-315500D01*
X339500Y-309502D02*
Y-307503D01*
Y-308502D01*
X333502D01*
X334502Y-309502D01*
Y-304504D02*
X333502Y-303504D01*
Y-301504D01*
X334502Y-300505D01*
X338500D01*
X339500Y-301504D01*
Y-303504D01*
X338500Y-304504D01*
X334502D01*
X340500Y-298505D02*
Y-294507D01*
X339500Y-292507D02*
X333502D01*
Y-289508D01*
X334502Y-288509D01*
X336501D01*
X337501Y-289508D01*
Y-292507D01*
Y-290508D02*
X339500Y-288509D01*
Y-283510D02*
Y-285510D01*
X338500Y-286509D01*
X336501D01*
X335501Y-285510D01*
Y-283510D01*
X336501Y-282511D01*
X337501D01*
Y-286509D01*
X339500Y-280511D02*
Y-278512D01*
Y-279512D01*
X333502D01*
Y-280511D01*
X335501Y-274513D02*
Y-272514D01*
X336501Y-271514D01*
X339500D01*
Y-274513D01*
X338500Y-275513D01*
X337501Y-274513D01*
Y-271514D01*
X335501Y-269515D02*
X338500D01*
X339500Y-268515D01*
Y-265516D01*
X340500D01*
X341499Y-266516D01*
Y-267515D01*
X339500Y-265516D02*
X335501D01*
X339500Y-263517D02*
Y-261518D01*
Y-262517D01*
X333502D01*
X334502Y-263517D01*
X287402Y-232598D02*
X281403D01*
Y-229599D01*
X282403Y-228600D01*
X284403D01*
X285402Y-229599D01*
Y-232598D01*
X286402Y-226600D02*
X287402Y-225601D01*
Y-223601D01*
X286402Y-222602D01*
X282403D01*
X281403Y-223601D01*
Y-225601D01*
X282403Y-226600D01*
X283403D01*
X284403Y-225601D01*
Y-222602D01*
X288401Y-220602D02*
Y-216604D01*
X287402Y-211605D02*
X281403D01*
X284403Y-214604D01*
Y-210606D01*
X282403Y-208606D02*
X281403Y-207607D01*
Y-205607D01*
X282403Y-204608D01*
X283403D01*
X284403Y-205607D01*
X285402Y-204608D01*
X286402D01*
X287402Y-205607D01*
Y-207607D01*
X286402Y-208606D01*
X285402D01*
X284403Y-207607D01*
X283403Y-208606D01*
X282403D01*
X284403Y-207607D02*
Y-205607D01*
X281403Y-198609D02*
Y-202608D01*
X284403D01*
X283403Y-200609D01*
Y-199609D01*
X284403Y-198609D01*
X286402D01*
X287402Y-199609D01*
Y-201608D01*
X286402Y-202608D01*
X203266Y-281590D02*
Y-275592D01*
X206265D01*
X207265Y-276591D01*
Y-278591D01*
X206265Y-279590D01*
X203266D01*
X209264Y-275592D02*
X213263D01*
Y-276591D01*
X209264Y-280590D01*
Y-281590D01*
X215262Y-282589D02*
X219261D01*
X225259Y-276591D02*
X224259Y-275592D01*
X222260D01*
X221260Y-276591D01*
Y-277591D01*
X222260Y-278591D01*
X224259D01*
X225259Y-279590D01*
Y-280590D01*
X224259Y-281590D01*
X222260D01*
X221260Y-280590D01*
X230257Y-281590D02*
X228258D01*
X227258Y-280590D01*
Y-278591D01*
X228258Y-277591D01*
X230257D01*
X231257Y-278591D01*
Y-279590D01*
X227258D01*
X233256Y-277591D02*
Y-281590D01*
Y-279590D01*
X234256Y-278591D01*
X235256Y-277591D01*
X236256D01*
X239254Y-282589D02*
X243253D01*
X245253Y-275592D02*
Y-280590D01*
X246252Y-281590D01*
X248252D01*
X249251Y-280590D01*
Y-275592D01*
X251251Y-281590D02*
Y-277591D01*
X253250Y-275592D01*
X255249Y-277591D01*
Y-281590D01*
Y-278591D01*
X251251D01*
X257249Y-281590D02*
Y-275592D01*
X260248D01*
X261247Y-276591D01*
Y-278591D01*
X260248Y-279590D01*
X257249D01*
X259248D02*
X261247Y-281590D01*
X263247Y-275592D02*
X267245D01*
X265246D01*
Y-281590D01*
X187566D02*
Y-275592D01*
X190565D01*
X191565Y-276591D01*
Y-278591D01*
X190565Y-279590D01*
X187566D01*
X197563Y-275592D02*
X195564Y-276591D01*
X193564Y-278591D01*
Y-280590D01*
X194564Y-281590D01*
X196563D01*
X197563Y-280590D01*
Y-279590D01*
X196563Y-278591D01*
X193564D01*
X199562Y-282589D02*
X203561D01*
X205560Y-275592D02*
Y-280590D01*
X206560Y-281590D01*
X208559D01*
X209559Y-280590D01*
Y-275592D01*
X211558Y-281590D02*
Y-277591D01*
X213558Y-275592D01*
X215557Y-277591D01*
Y-281590D01*
Y-278591D01*
X211558D01*
X217556Y-281590D02*
Y-275592D01*
X220555D01*
X221555Y-276591D01*
Y-278591D01*
X220555Y-279590D01*
X217556D01*
X219556D02*
X221555Y-281590D01*
X223554Y-275592D02*
X227553D01*
X225554D01*
Y-281590D01*
X187566Y-237690D02*
Y-231692D01*
X190565D01*
X191565Y-232691D01*
Y-234691D01*
X190565Y-235690D01*
X187566D01*
X197563Y-231692D02*
X193564D01*
Y-234691D01*
X195564Y-233691D01*
X196563D01*
X197563Y-234691D01*
Y-236690D01*
X196563Y-237690D01*
X194564D01*
X193564Y-236690D01*
X199562Y-238689D02*
X203561D01*
X209559Y-232691D02*
X208559Y-231692D01*
X206560D01*
X205560Y-232691D01*
Y-236690D01*
X206560Y-237690D01*
X208559D01*
X209559Y-236690D01*
Y-234691D01*
X207560D01*
X211558Y-237690D02*
Y-231692D01*
X215557Y-237690D01*
Y-231692D01*
X217556D02*
Y-237690D01*
X220555D01*
X221555Y-236690D01*
Y-232691D01*
X220555Y-231692D01*
X217556D01*
X172766Y-237690D02*
Y-231692D01*
X175765D01*
X176765Y-232691D01*
Y-234691D01*
X175765Y-235690D01*
X172766D01*
X181763Y-237690D02*
Y-231692D01*
X178764Y-234691D01*
X182763D01*
X184762Y-238689D02*
X188761D01*
X190760Y-231692D02*
Y-235690D01*
X192760Y-237690D01*
X194759Y-235690D01*
Y-231692D01*
X200757Y-232691D02*
X199757Y-231692D01*
X197758D01*
X196758Y-232691D01*
Y-236690D01*
X197758Y-237690D01*
X199757D01*
X200757Y-236690D01*
X206755Y-232691D02*
X205755Y-231692D01*
X203756D01*
X202756Y-232691D01*
Y-236690D01*
X203756Y-237690D01*
X205755D01*
X206755Y-236690D01*
X208754Y-238689D02*
X212753D01*
X214753Y-232691D02*
X215752Y-231692D01*
X217752D01*
X218751Y-232691D01*
Y-233691D01*
X217752Y-234691D01*
X216752D01*
X217752D01*
X218751Y-235690D01*
Y-236690D01*
X217752Y-237690D01*
X215752D01*
X214753Y-236690D01*
X220751Y-237690D02*
Y-236690D01*
X221750D01*
Y-237690D01*
X220751D01*
X225749Y-232691D02*
X226749Y-231692D01*
X228748D01*
X229748Y-232691D01*
Y-233691D01*
X228748Y-234691D01*
X227748D01*
X228748D01*
X229748Y-235690D01*
Y-236690D01*
X228748Y-237690D01*
X226749D01*
X225749Y-236690D01*
X203266Y-237690D02*
Y-231692D01*
X206265D01*
X207265Y-232691D01*
Y-234691D01*
X206265Y-235690D01*
X203266D01*
X209264Y-232691D02*
X210264Y-231692D01*
X212263D01*
X213263Y-232691D01*
Y-233691D01*
X212263Y-234691D01*
X211263D01*
X212263D01*
X213263Y-235690D01*
Y-236690D01*
X212263Y-237690D01*
X210264D01*
X209264Y-236690D01*
X215262Y-238689D02*
X219261D01*
X221260Y-231692D02*
Y-235690D01*
X223260Y-237690D01*
X225259Y-235690D01*
Y-231692D01*
X231257Y-232691D02*
X230257Y-231692D01*
X228258D01*
X227258Y-232691D01*
Y-236690D01*
X228258Y-237690D01*
X230257D01*
X231257Y-236690D01*
X237255Y-232691D02*
X236256Y-231692D01*
X234256D01*
X233256Y-232691D01*
Y-236690D01*
X234256Y-237690D01*
X236256D01*
X237255Y-236690D01*
X239254Y-238689D02*
X243253D01*
X249251Y-231692D02*
X245253D01*
Y-234691D01*
X247252Y-233691D01*
X248252D01*
X249251Y-234691D01*
Y-236690D01*
X248252Y-237690D01*
X246252D01*
X245253Y-236690D01*
X171566Y-171690D02*
Y-165692D01*
X174565D01*
X175565Y-166691D01*
Y-168691D01*
X174565Y-169690D01*
X171566D01*
X181563Y-171690D02*
X177564D01*
X181563Y-167691D01*
Y-166691D01*
X180563Y-165692D01*
X178564D01*
X177564Y-166691D01*
X183562Y-172689D02*
X187561D01*
X193559Y-166691D02*
X192559Y-165692D01*
X190560D01*
X189560Y-166691D01*
Y-170690D01*
X190560Y-171690D01*
X192559D01*
X193559Y-170690D01*
Y-168691D01*
X191560D01*
X195558Y-171690D02*
Y-165692D01*
X198557D01*
X199557Y-166691D01*
Y-168691D01*
X198557Y-169690D01*
X195558D01*
X205555Y-166691D02*
X204556Y-165692D01*
X202556D01*
X201556Y-166691D01*
Y-167691D01*
X202556Y-168691D01*
X204556D01*
X205555Y-169690D01*
Y-170690D01*
X204556Y-171690D01*
X202556D01*
X201556Y-170690D01*
X2466Y-347590D02*
Y-341592D01*
X5465D01*
X6465Y-342591D01*
Y-344591D01*
X5465Y-345590D01*
X2466D01*
X8464Y-347590D02*
X10464D01*
X9464D01*
Y-341592D01*
X8464Y-342591D01*
X13463Y-348589D02*
X17461D01*
X19461Y-341592D02*
X21460D01*
X20460D01*
Y-347590D01*
X19461D01*
X21460D01*
X24459D02*
Y-341592D01*
X28458Y-347590D01*
Y-341592D01*
X176166Y-325292D02*
Y-331290D01*
X179165D01*
X180165Y-330290D01*
Y-326291D01*
X179165Y-325292D01*
X176166D01*
X186163D02*
X184164Y-326291D01*
X182164Y-328291D01*
Y-330290D01*
X183164Y-331290D01*
X185163D01*
X186163Y-330290D01*
Y-329290D01*
X185163Y-328291D01*
X182164D01*
X124966Y-324992D02*
Y-330990D01*
X127965D01*
X128965Y-329990D01*
Y-325991D01*
X127965Y-324992D01*
X124966D01*
X134963D02*
X130964D01*
Y-327991D01*
X132964Y-326991D01*
X133963D01*
X134963Y-327991D01*
Y-329990D01*
X133963Y-330990D01*
X131964D01*
X130964Y-329990D01*
X23622Y-332585D02*
Y-338583D01*
X26621D01*
X27621Y-337583D01*
Y-333584D01*
X26621Y-332585D01*
X23622D01*
X32619Y-338583D02*
Y-332585D01*
X29620Y-335584D01*
X33619D01*
X33307Y-320959D02*
Y-314961D01*
X30308D01*
X29308Y-315960D01*
Y-319959D01*
X30308Y-320959D01*
X33307D01*
X27309Y-319959D02*
X26309Y-320959D01*
X24310D01*
X23310Y-319959D01*
Y-318959D01*
X24310Y-317960D01*
X25310D01*
X24310D01*
X23310Y-316960D01*
Y-315960D01*
X24310Y-314961D01*
X26309D01*
X27309Y-315960D01*
X23622Y-301089D02*
Y-307087D01*
X26621D01*
X27621Y-306087D01*
Y-302088D01*
X26621Y-301089D01*
X23622D01*
X33619Y-307087D02*
X29620D01*
X33619Y-303088D01*
Y-302088D01*
X32619Y-301089D01*
X30620D01*
X29620Y-302088D01*
X25433Y-285340D02*
Y-291339D01*
X28432D01*
X29432Y-290339D01*
Y-286340D01*
X28432Y-285340D01*
X25433D01*
X31431Y-291339D02*
X33430D01*
X32431D01*
Y-285340D01*
X31431Y-286340D01*
X165065Y-277991D02*
X164065Y-276992D01*
X162066D01*
X161066Y-277991D01*
Y-281990D01*
X162066Y-282990D01*
X164065D01*
X165065Y-281990D01*
X171063Y-276992D02*
X167064D01*
Y-279991D01*
X169064Y-278991D01*
X170063D01*
X171063Y-279991D01*
Y-281990D01*
X170063Y-282990D01*
X168064D01*
X167064Y-281990D01*
X130565Y-276991D02*
X129565Y-275992D01*
X127566D01*
X126566Y-276991D01*
Y-280990D01*
X127566Y-281990D01*
X129565D01*
X130565Y-280990D01*
X135563Y-281990D02*
Y-275992D01*
X132564Y-278991D01*
X136563D01*
X117765Y-277691D02*
X116765Y-276692D01*
X114766D01*
X113766Y-277691D01*
Y-281690D01*
X114766Y-282690D01*
X116765D01*
X117765Y-281690D01*
X119764Y-277691D02*
X120764Y-276692D01*
X122763D01*
X123763Y-277691D01*
Y-278691D01*
X122763Y-279691D01*
X121764D01*
X122763D01*
X123763Y-280690D01*
Y-281690D01*
X122763Y-282690D01*
X120764D01*
X119764Y-281690D01*
X61665Y-269191D02*
X60665Y-268192D01*
X58666D01*
X57666Y-269191D01*
Y-273190D01*
X58666Y-274190D01*
X60665D01*
X61665Y-273190D01*
X67663Y-274190D02*
X63664D01*
X67663Y-270191D01*
Y-269191D01*
X66663Y-268192D01*
X64664D01*
X63664Y-269191D01*
X275265Y-180891D02*
X274265Y-179892D01*
X272266D01*
X271266Y-180891D01*
Y-184890D01*
X272266Y-185890D01*
X274265D01*
X275265Y-184890D01*
X277264Y-185890D02*
X279263D01*
X278264D01*
Y-179892D01*
X277264Y-180891D01*
X-131500Y-500D02*
X346000D01*
X-137500D02*
X-131500D01*
X-137500D02*
X-137500Y-393500D01*
X346000D01*
Y-500D01*
X393701Y-295276D02*
X393701Y-295276D01*
D12*
X154701Y-362193D02*
G03*
X154701Y-362193I-492J0D01*
G01*
X105331Y-361130D02*
G03*
X105331Y-361130I-492J0D01*
G01*
D13*
X141741Y-322835D02*
Y-318899D01*
X139773Y-320867D02*
X143709D01*
X82678Y-334547D02*
Y-330611D01*
X80710Y-332579D02*
X84646D01*
D14*
X37717Y-334646D02*
D03*
X19212Y-318898D02*
D03*
X37717Y-303150D02*
D03*
X19212Y-287402D02*
D03*
D15*
X181102Y-349920D02*
D03*
X129921Y-349625D02*
D03*
M02*
